<?xml version="1.0" encoding="UTF-8"?>
<svg width="640px" height="480px" viewBox="0 0 640 480" version="1.1" xmlns="http://www.w3.org/2000/svg" xmlns:xlink="http://www.w3.org/1999/xlink">
    <!-- Generator: Sketch 61.2 (89653) - https://sketch.com -->
    <title>coffee break</title>
    <desc>Created with Sketch.</desc>
    <g id="coffee-break" stroke="none" stroke-width="1" fill="none" fill-rule="evenodd">
        <ellipse id="shadow" fill-opacity="0.2" fill="#1B295B" fill-rule="nonzero" cx="342" cy="396" rx="147" ry="4"></ellipse>
        <g id="plant" transform="translate(152.000000, 80.000000)" fill-rule="nonzero">
            <path d="M51.068,138.643 C59.021,146.982 72.191,151.111 77.783,152.133 C82.132,133.125 68.464,118.408 65.358,115.955 C62.251,113.503 65.358,107.984 62.872,102.465 C60.387,96.947 51.068,94.494 44.235,92.041 C37.401,89.589 35.537,76.099 25.597,71.193 C20.354,68.606 5.716,66.288 0.746,74.259 C-4.224,82.23 16.899,92.041 26.839,98.173 C36.779,104.305 41.128,128.219 51.068,138.643 Z" id="leaves-08" fill="#99BCA4"></path>
            <path d="M29.7788477,88.0854308 C47.2894346,97.0287558 65.5390767,113.01664 79.4640163,133.481954 C96.7139423,158.833961 106.542206,189.464263 106.737047,224.64745 L106.74,225.715 L104.74,225.715 C104.74,190.491369 95.0123388,159.888403 77.8104837,134.607046 C64.261385,114.694099 46.5681819,99.0850029 29.5674118,90.2267983 L28.8691523,89.8665692 L29.7788477,88.0854308 Z" id="leaves-07" fill="#42694F"></path>
            <path d="M72.191,159.491 C75.173,171.755 91.864,195.669 98.905,198.735 C116.922,190.763 109.467,146.001 103.876,137.417 C98.284,128.832 104.497,116.568 103.876,108.597 C103.254,100.626 100.769,96.947 93.935,93.267 C88.468,90.324 88.344,70.375 88.965,60.769 C88.551,50.754 84.368,27.2891 70.949,13.5538 C54.174,-3.6153 42.992,-1.1625 36.779,3.1297 C30.566,7.422 26.217,19.6856 33.673,31.9493 C41.128,44.213 51.068,36.2416 47.34,73.646 C43.613,111.05 64.115,119.634 69.706,128.832 C75.297,138.03 68.463,144.162 72.191,159.491 Z" id="leaves-06" fill="#628D70"></path>
            <path d="M63.5908031,33.7070863 C71.5261968,41.9117372 76.2194846,56.7714873 79.2141284,78.5123529 L79.615227,81.5279408 C80.3638375,87.3464167 80.8918503,92.6445146 81.8260145,102.951179 L81.8849342,103.601917 C83.6059296,122.628734 86.0363153,133.83941 89.9648527,144.238076 L90.1472365,144.717463 C90.4852565,145.599785 90.8354745,146.485739 91.2489841,147.509097 L92.7029825,151.071692 L93.2540863,152.438747 C95.1997138,157.316985 96.341103,160.794568 97.394813,165.399976 C99.0774646,172.754661 100.056772,181.354511 100.550654,191.729861 L100.640241,193.760306 C100.855232,199.036969 100.935706,203.346006 100.990017,211.274223 L101.065994,222.644139 C101.081488,224.086824 101.100075,225.297298 101.124873,226.498699 L101.147723,227.531454 L99.1482772,227.578546 L99.0766225,223.571926 C99.0632397,222.50503 99.0521958,221.32459 99.0419684,219.921977 L98.9742287,209.177221 C98.9198713,202.577836 98.8358894,198.602957 98.6418993,193.841726 C98.1864366,182.662991 97.2043303,173.535046 95.4451896,165.846035 C94.4172675,161.353337 93.3048419,157.963887 91.3924803,153.169863 L89.2189895,147.82245 C88.8756576,146.967863 88.5733424,146.199705 88.2796003,145.43296 L87.9107874,144.456709 C84.0836538,134.180796 81.6790329,123.04107 79.9737444,104.66274 L79.250027,96.786088 C78.5686443,89.5423585 78.0883464,85.161073 77.3910443,79.9515822 L77.1231106,77.9975164 C74.2160812,57.3510639 69.7202546,43.1615797 62.4313363,35.3895686 L62.1531969,35.0975137 L63.5908031,33.7070863 Z" id="leaves-05" fill="#42694F"></path>
            <path d="M95.799,181.566 C95.302,187.452 101.391,191.785 103.254,193.216 C113.816,194.443 113.195,185.245 113.816,179.113 C114.437,172.981 123.756,169.302 127.484,163.17 C131.211,157.038 126.862,150.293 131.211,140.483 C135.56,130.672 141.152,131.898 149.228,123.927 C157.304,115.955 156.062,98.173 150.47,87.749 C145.997,79.41 149.849,73.237 152.334,71.193 C166.002,57.703 164.76,44.213 161.653,39.3075 C159.168,35.3831 158.961,30.3142 159.168,28.2702 C161.653,16.0066 156.683,11.1011 153.577,9.8748 C150.47,8.6484 135.56,4.3561 118.786,38.6943 C102.012,73.033 108.846,95.72 110.088,107.371 C111.331,119.021 97.663,129.445 93.314,135.577 C88.965,141.709 88.344,149.68 92.072,157.038 C95.799,164.397 96.42,174.208 95.799,181.566 Z" id="leaves-04" fill="#99BCA4"></path>
            <path d="M134.939,192.603 C131.46,198.49 118.994,201.188 113.195,201.801 C108.846,196.282 110.71,188.311 111.331,186.472 C111.953,184.632 112.574,185.245 112.574,175.434 C112.574,165.623 122.514,164.397 124.378,161.331 C126.242,158.265 127.484,154.003 127.484,147.841 C127.484,140.483 135.561,136.191 142.395,133.125 C149.228,130.059 152.335,122.701 157.926,118.408 C163.518,114.116 182.155,106.758 184.641,115.956 C187.126,125.153 175.943,127.606 175.322,134.351 C174.7,141.096 178.428,137.417 175.943,147.841 C173.458,158.265 152.956,161.944 144.88,168.689 C136.803,175.434 139.288,185.245 134.939,192.603 Z" id="leaves-03" fill="#D4EBDB"></path>
            <path d="M166.297612,126.058912 L168.192388,126.699088 C166.970214,130.316446 155.413357,141.540468 147.643244,147.197109 L147.326092,147.426406 C140.154653,152.573598 123.05729,176.775912 117.851603,189.905562 C114.271372,198.93578 110.701168,213.929604 108.717863,225.725388 L108.590783,226.49005 L106.617217,226.16595 C108.59373,214.130228 112.26958,198.558294 115.9924,189.168429 C121.329443,175.707475 138.646419,151.194287 146.159829,145.80165 C153.48321,140.544333 164.927924,129.486584 166.249055,126.189985 L166.297612,126.058912 Z" id="leaves-02" fill="#42694F"></path>
            <path d="M136.532931,36.4026008 L138.317069,37.3063992 C134.528856,44.7844989 129.997031,66.6940185 127.922672,95.526868 L127.860568,96.4027021 C126.822948,111.25299 124.730578,119.075875 120.102044,128.369351 L117.16419,134.075635 L116.519163,135.340497 C115.692469,136.97596 114.989397,138.428627 114.293,139.953899 C112.043638,144.880524 110.09602,150.114124 108.236416,156.518246 C107.50044,159.052808 106.786204,161.749156 106.091114,164.630507 C101.882606,182.076242 100.835724,192.734769 101.238803,206.908156 L101.412748,211.708824 L101.581502,215.998641 C101.699198,219.203011 101.754737,221.479145 101.767223,223.964585 L101.77,225.101 L99.77,225.101 L99.7650591,223.606722 C99.7474976,221.038515 99.681724,218.632706 99.5455496,215.079064 L99.2896725,208.538847 L99.2402382,206.986833 C98.830678,192.631483 99.8927556,181.796346 104.146886,164.16149 C104.849043,161.250844 105.571106,158.524946 106.315751,155.960531 C108.202605,149.462565 110.184157,144.13778 112.473658,139.123238 C113.181684,137.572496 113.895387,136.097832 114.732549,134.441591 L118.078873,127.942361 C122.597793,118.98512 124.687475,111.60774 125.75824,97.7231742 L126.057852,93.6266878 C128.160392,65.9996138 132.495986,44.8951103 136.293809,36.890665 L136.532931,36.4026008 Z" id="leaves-01" fill="#42694F"></path>
            <path d="M89.75,223.369 C90.022,222.566 90.775,222.036 91.622,222.036 L117.373,222.036 C118.22,222.036 118.973,222.567 119.245,223.369 C120.53,227.171 124.172,238.396 125.694,247.778 C125.936,249.272 126.125,250.719 126.242,252.082 C128.1,273.781 121.873,306.216 120.355,313.673 C120.167,314.596 119.357,315.24 118.415,315.24 L90.58,315.24 C89.638,315.24 88.828,314.596 88.64,313.673 C87.122,306.216 80.895,273.781 82.753,252.082 C82.866,250.766 83.046,249.371 83.276,247.932 C84.783,238.518 88.459,227.19 89.75,223.369 Z" id="pot-03" fill="#EBEBEB"></path>
            <path d="M82.753,252.082 L126.241,252.082 C126.125,250.719 125.936,249.272 125.694,247.778 L83.276,247.931 C83.045,249.371 82.866,250.766 82.753,252.082 Z" id="pot-02" fill-opacity="0.8" fill="#FFFFFF"></path>
            <path d="M126.242,252.082 C126.921,260.017 126.519,269.388 125.662,278.449 L125.662,278.449 L83.333,278.449 C82.475,269.388 82.074,260.017 82.753,252.082 L82.753,252.082 Z M125.016,244.11 C125.271,245.354 125.501,246.587 125.696,247.789 L83.374,247.789 L83.979,244.11 L125.016,244.11 Z" id="pot-1" fill-opacity="0.2" fill="#1B295B"></path>
        </g>
        <g id="head" transform="translate(355.000000, 99.000000)" fill-rule="nonzero">
            <path d="M41.543,4.7349 C35.915,11.7044 40.982,16.8818 43.787,18.841 C44.722,19.8206 47.826,23.543 48.275,25.894 C48.836,28.833 52.305,37.032 61.177,30.596 C68.469,25.306 66.351,12.1602 62.298,6.4981 C57.25,-0.555 47.714,-2.906 41.543,4.7349 Z" id="head-15" fill="#644948"></path>
            <path d="M45.397,11.2276 L41,14.1698 L49.245,33 L54.741,26.527 C56.39,18.2889 49.794,9.4622 45.397,11.2276 Z" id="head-14" fill="#3962B8"></path>
            <path d="M39.165,56 L39.165,56 C29.557,52.536 8.151,37.065 4,28.291 C4,18.4772 5.729,15.3983 11.494,11.55 C14.376,9.6258 28.788,6.9317 39.165,11.55 C47.494,15.257 53,20.7864 53,33.486 C53,46.186 43.777,52.729 39.165,56 Z" id="head-13" fill="#644948"></path>
            <path d="M39.016,55.679 C40.154,62.476 41.293,67.196 43,72.105 L32.187,84 L24.788,77.769 C26.495,73.238 24.788,63.042 24.788,63.042 C23.081,64.742 18.528,66.441 15.682,67.007 C13.405,64.742 2.023,51.148 4.299,28.491 C5.324,18.2954 20.769,19.687 29.341,25.659 C35.032,29.624 30.853,35.443 31.048,38.12 C31.328,41.951 34.463,41.519 34.463,41.519 C40.724,36.987 41.293,47.183 36.171,51.148 C36.171,52.847 39.016,55.679 39.016,55.679 Z" id="head-12" fill="#FFDDCA"></path>
            <path d="M4.6061747,34.0929389 C6.52208589,31.6436381 9.25089241,32.1778812 10.3865304,34.6368825 L10.4614632,34.8075118 L9.53853678,35.1924882 C8.75369408,33.3109385 6.95911692,32.8688227 5.51986157,34.5547616 L5.3938253,34.7090611 L4.6061747,34.0929389 Z" id="head-11" fill="#2F2524"></path>
            <ellipse id="head-10" fill="#1B295B" transform="translate(16.023000, 41.656000) rotate(-4.343320) translate(-16.023000, -41.656000) " cx="16.023" cy="41.656" rx="1.65196" ry="2.47793"></ellipse>
            <ellipse id="head-09" fill="#1B295B" transform="translate(7.933000, 41.604000) rotate(-4.343320) translate(-7.933000, -41.604000) " cx="7.933" cy="41.604" rx="1.6183" ry="2.42745"></ellipse>
            <path d="M12,52.908 L11.428,46 C11.428,46 10.286,50.605 8,51.757 C9.714,53.484 12,52.908 12,52.908 Z" id="head-08" fill="#EEC8B2"></path>
            <path d="M17.6979712,55.6015297 L18.3020288,56.3984703 C15.7910136,58.3017458 12.8356003,58.8791705 11.013697,58.3027522 L10.8229024,58.2365858 L11.1770976,57.3014142 C12.5913892,57.8370757 15.1696621,57.4052573 17.4463244,55.7863092 L17.6979712,55.6015297 Z" id="head-07" fill="#2F2524"></path>
            <path d="M13.5672183,34.7496003 C15.0552819,32.1776858 17.7906489,31.6812775 21.0631298,33.9290599 L21.292305,34.0903428 L20.707695,34.9016572 C17.8726992,32.8588402 15.7604964,33.1354028 14.530569,35.0883885 L14.4327817,35.2503997 L13.5672183,34.7496003 Z" id="head-06" fill="#2F2524"></path>
            <ellipse id="head-05" fill="#FED4D7" transform="translate(23.150000, 51.140000) rotate(10.112000) translate(-23.150000, -51.140000) " cx="23.15" cy="51.14" rx="4.74609" ry="5.58042"></ellipse>
            <path d="M8.408,55.5 C7.536,53.564 6.707,51.395 6,49 C6.888,49.641 7.637,50.575 8.102,51.727 C8.618,53.005 8.697,54.333 8.408,55.5 Z" id="head-04" fill="#FED4D7"></path>
            <circle id="head-03" fill="#FFFFFF" cx="35" cy="46" r="2"></circle>
            <rect id="head-02" fill="#FFFFFF" transform="translate(32.856100, 48.498387) rotate(34.493400) translate(-32.856100, -48.498387) " x="31.721215" y="45.1075621" width="2.26977" height="6.78165"></rect>
            <path d="M35,33 C34.538,21.989 30.962,8.8215 18.269,7.1936 C0.385,4.8998 -0.961,23.633 0.385,29.559 C7.885,26.118 27.692,31.471 35,33 Z" id="head-01" fill="#644948"></path>
        </g>
        <g id="chair" transform="translate(336.000000, 201.000000)" fill-rule="nonzero">
            <polygon id="chair-16" fill="#F9D971" points="65 34 132 34 129 46 65 46"></polygon>
            <polygon id="chair-15" fill-opacity="0.2" fill="#1B295B" points="129 46 132 34 127 34 124 46"></polygon>
            <polygon id="chair-14" fill="#F9D971" points="69 20 136 20 133 32 69 32"></polygon>
            <polygon id="chair-13" fill-opacity="0.2" fill="#1B295B" points="133 32 136 20 131 20 128 32"></polygon>
            <polygon id="chair-12" fill="#F9D971" points="73 6 140 6 137 18 73 18"></polygon>
            <polygon id="chair-11" fill-opacity="0.2" fill="#1B295B" points="137 18 140 6 135 6 132 18"></polygon>
            <rect id="chair-10" fill="#F9D971" x="5" y="101" width="106" height="5"></rect>
            <rect id="chair-09" fill-opacity="0.2" fill="#1B295B" x="35" y="101" width="76" height="5"></rect>
            <rect id="chair-08" fill="#605F5F" transform="translate(38.564710, 149.911822) rotate(-49.811900) translate(-38.564710, -149.911822) " x="-16.8047898" y="147.411822" width="110.739" height="5" rx="2.5"></rect>
            <rect id="chair-07" fill="#605F5F" x="15" y="106" width="99" height="5"></rect>
            <rect id="chair-06" fill="#605F5F" transform="translate(128.277095, 56.005495) rotate(-75.354800) translate(-128.277095, -56.005495) " x="71.4160949" y="53.5054948" width="113.722" height="5" rx="2.5"></rect>
            <rect id="chair-05" fill="#605F5F" transform="translate(38.871994, 151.150053) scale(-1, 1) rotate(-49.811980) translate(-38.871994, -151.150053) " x="-18.1190081" y="148.650053" width="113.982005" height="5.0000002" rx="2.5"></rect>
            <rect id="chair-04" fill="#605F5F" x="57" y="171" width="37" height="2"></rect>
            <rect id="chair-03" fill="#605F5F" x="18" y="171" width="41" height="2"></rect>
            <rect id="chair-02" fill="#605F5F" transform="translate(78.501131, 151.170719) rotate(-49.811900) translate(-78.501131, -151.170719) " x="21.482131" y="148.670719" width="114.038" height="5" rx="2.5"></rect>
            <rect id="chair-01" fill="#605F5F" transform="translate(74.590699, 150.818363) scale(-1, 1) rotate(-49.811980) translate(-74.590699, -150.818363) " x="18.0346965" y="148.318363" width="113.112005" height="5.0000002" rx="2.5"></rect>
        </g>
        <g id="L-hand" transform="translate(268.000000, 203.000000)" fill-rule="nonzero">
            <path d="M74.5,47 C78.5,44.2 94.167,23.167 101.5,13 L101.5,4.5 C99.167,2.167 93.7,-1.4 90.5,3 C87.3,7.4 72.833,24.167 66,32 C54,33 28.735,35.789 24,35 C18,34 9.5,33 4,37.5 L0,47 L9.5,47 L74.5,47 Z" id="L-hand-02" fill="#EEC8B2"></path>
            <path d="M0,47 L9.5,47 L22,47 L26.5,45 C26.5,45 27,44.8 27,44 C27,43.2 25.667,43 25,43 L22.5,43 C19.167,43.334 13.2,43.6 16,42 C18.8,40.4 19.167,36.217 19,34.325 C13.85,33.848 8.094,34.151 4,37.5 L0,47 Z" id="L-hand-01" fill="#CBA792"></path>
        </g>
        <g id="t-shirt" transform="translate(357.000000, 167.000000)" fill-rule="nonzero">
            <path d="M0.5,39.5 C7.5,28.5 11.5,22 15.5,15 C18.5,17.833 24.1,24.7 22.5,29.5 C20.9,34.3 15.167,44.5 12.5,49 C12.5,49 10,43 0.5,39.5 Z" id="t-shirt-06" fill="#F9707A"></path>
            <path d="M12.5,49 C12.5,49 11.977,47.745 10.5,46.047 C12.571,44.589 17.034,40.897 18.917,37.414 C18.988,37.276 19.059,37.138 19.129,37 C19.063,37.138 18.992,37.276 18.917,37.414 C16.693,41.743 14.067,46.356 12.5,49 Z" id="t-shirt-05" fill-opacity="0.2" fill="#1B295B"></path>
            <path d="M16,26.5 C19.571,35.875 25.666,76.333 28,95.5 C42,103 71,115.6 75,106 C80,94 63.5,30 62,19.5 C61,10 49,4.167 41,0.5 C33.5,12.5 26.5,8 23,5 C17.5,7.5 12,16 16,26.5 Z" id="t-shirt-04" fill="#F9707A"></path>
            <path d="M62,19.5 C62.479,22.854 64.489,31.667 66.84,42.5 C61.02,60 44.993,94.2 27.44,91 C27.072,88.099 26.653,84.892 26.193,81.5 C25.759,78.298 25.289,74.93 24.793,71.5 C24.026,66.191 23.196,60.732 22.339,55.5 L26,50.5 C26.667,52.333 29.2,56.2 34,57 C38.8,57.8 29.862,67 24.793,71.5 C25.289,74.93 25.759,78.298 26.193,81.5 L52,54.5 C56,47.5 63.6,30.7 62,19.5 Z" id="t-shirt-03" fill-opacity="0.2" fill="#1B295B"></path>
            <path d="M43.508065,29.9105573 L44.491935,30.0894427 C43.8326028,33.7157694 40.3200532,41.0275723 36.6802394,47.32422 L36.4319051,47.7519087 L35.5680949,47.2480913 L36.0456616,46.4220366 C39.4633248,40.4584731 42.7383221,33.6250806 43.4617626,30.1476692 L43.508065,29.9105573 Z" id="t-shirt-02" fill-opacity="0.2" fill="#1B295B"></path>
            <ellipse id="t-shirt-01" fill="#F9707A" transform="translate(22.710000, 44.466000) rotate(6.638610) translate(-22.710000, -44.466000) " cx="22.71" cy="44.466" rx="8.2917" ry="11.5"></ellipse>
        </g>
        <g id="table" transform="translate(207.000000, 250.000000)" fill-rule="nonzero">
            <rect id="table-04" fill="#605F5F" x="85" y="8" width="14" height="136"></rect>
            <rect id="table-03" fill="#F9D971" x="0" y="0" width="183" height="10"></rect>
            <rect id="table-02" fill-opacity="0.2" fill="#1B295B" x="104" y="0" width="73" height="10"></rect>
            <polygon id="table-01" fill="#605F5F" points="39 144 144 144 144 132.5 99 129 85 129 39 132.5"></polygon>
        </g>
        <g id="legs" transform="translate(235.000000, 273.000000)" fill-rule="nonzero">
            <path d="M88.5,32 C80.816,19.868 92.5,8.167 97,7.5 L126,0.5 C134,0.5 130,24.5 116,28 C130.5,37 142.5,71.5 147,79.5 C151,82.269 154.5,86 154.5,89.5 C152,97.5 151.8,96.7 147,103.5 C142.2,110.3 135.5,118 127,125 C127,125 122.5,126 123.5,122.5 C124.5,119 129,112 130.5,108.5 C131.615,105.9 135.5,92.5 137,86.5 C116,57 98,47 88.5,32 Z" id="legs-02" fill="#EEC8B2"></path>
            <path d="M92.5,26.501 C102.199,7.586 115.5,9 125,9.001 L142.5,18.501 C137.321,19.536 133.635,22.618 126.5,28 C125.047,29.096 122.5,29 120.183,29 C118.25,30.91 116.196,33.212 114,36 C99,64.5 69,89.5 53.5,106 C55,114.5 55.5,118 53,118 C33,118 19.52,123.5 13.5,123.5 C3,123.5 -9,120 12.5,113.5 L45,98.5 C58,83.667 82.5,46 92.5,26.501 Z" id="legs-01" fill="#FFDDCA"></path>
        </g>
        <g id="shoes" transform="translate(231.000000, 355.000000)" fill-rule="nonzero">
            <polygon id="shoes-04" fill="#2F2524" points="160.514 22.045 157.545 20.191 155 18.603 162 7.999 165.81 13.562"></polygon>
            <path d="M127.5,40.499 C128.5,36.999 133,29.999 134.5,26.499 C135,28.999 136,31.499 142,25.499 C148,19.499 153.667,6.651 155,0.477 C157.915,2.857 162,5.6 162,7.999 C157.5,15.499 152.8,23.199 148,29.999 C143.2,36.799 138.5,39.499 131,42.999 C131,42.999 126.5,43.999 127.5,40.499 Z" id="shoes-03" fill="#3962B8"></path>
            <polygon id="shoes-02" fill="#2F2524" points="46 43.5 46 40 46 37 58.5 37 56 43.5"></polygon>
            <path d="M9.5,43 C-1,43 -5,38 16.5,31.5 C15.5,33.5 16.8,36.9 30,34.5 C43.2,32.1 54.299,29.167 58.199,28 C59.22,34.043 59.544,37.628 57.5,38 C35.5,42 15.521,43 9.5,43 Z" id="shoes-01" fill="#3962B8"></path>
        </g>
        <g id="skirt" transform="translate(334.000000, 262.000000)" fill-rule="nonzero">
            <path d="M23,40.001 C28.6,22.401 10,18.167 0,18.001 L0,17.501 L49,0.501 C62.833,0.167 82,5.001 98,11.001 C104,20.201 99.5,34.001 96.5,40.001 L54.5,40.001 L23,40.001 Z" id="skirt-02" fill="#729EFC"></path>
            <path d="M98,11 C104,20.2 99.5,34 96.5,40 L23,40 C23.833,37.381 24.131,35.058 24,33 C84.401,37 94,31 98,11 Z M49,0.5 C66.5,1.5 79.88,13.85 63,17.5 C44.5,21.5 45,9.5 14,12.643 L49,0.5 Z" id="skirt-01" fill-opacity="0.2" fill="#1B295B"></path>
        </g>
        <g id="cup" transform="translate(247.000000, 225.000000)" fill-rule="nonzero">
            <polygon id="cup-08" fill="#AFAFAF" points="3 20 44 20 44 22 35.419 25 11.581 25 3 22"></polygon>
            <path d="M44,20 L3,20 C2.448,20 2,20.448 2,21 C2,21.552 2.448,22 3,22 L44,22 C44.552,22 45,21.552 45,21 C45,20.448 44.552,20 44,20 Z" id="cup-07" fill="#EBEBEB"></path>
            <path d="M43,20 L27,20 C26.448,20 26,20.448 26,21 C26,21.552 26.448,22 27,22 L43,22 C43.552,22 44,21.552 44,21 C44,20.448 43.552,20 43,20 Z" id="cup-06" fill="#D7D7D7"></path>
            <rect id="cup-05" fill="#EBEBEB" x="10" y="0" width="27" height="2" rx="1"></rect>
            <path d="M11.371,3 C11.414,3 11.457,3 11.5,3 L11.5,3 L11.5,6 L11.5,6 C9.182,6 7.036,6.012 5.461,6.446 C4.696,6.657 4.216,6.932 3.935,7.225 C3.691,7.48 3.5,7.845 3.5,8.5 C3.5,10.153 4.282,11.43 5.86,12.318 C7.513,13.247 10.06,13.742 13.393,13.504 L13.607,16.496 C9.94,16.758 6.737,16.253 4.39,14.932 C1.968,13.57 0.5,11.347 0.5,8.5 C0.5,7.155 0.934,6.02 1.769,5.15 C2.565,4.318 3.616,3.843 4.663,3.554 C6.674,3 9.215,3 11.371,3 Z" id="cup-04" fill="#AFAFAF"></path>
            <path d="M11.371,3 L11.5,3 L11.5,4 C9.833,3.95 6.2,3.98 5,4.5 C3.8,5.02 3.167,5.717 3,6 C2.394,6.731 1.113,7.875 0.841,6.597 C1.053,6.056 1.364,5.572 1.769,5.15 C2.565,4.318 3.617,3.843 4.664,3.554 C6.674,3 9.216,3 11.371,3 Z" id="cup-03" fill="#D7D7D7"></path>
            <path d="M37,1 L10,1 C10,1 8.672,15.661 15,20 L32,20 C38.327,15.661 37,1 37,1 Z" id="cup-02" fill="#D7D7D7"></path>
            <path d="M29,1 L11,1 C11,1 9.672,15.661 16,20 L23,20 C29.327,15.661 29,1 29,1 Z" id="cup-01" fill="#EBEBEB"></path>
        </g>
        <g id="phone" transform="translate(305.000000, 200.000000)" fill-rule="nonzero">
            <path d="M15.268,3.5 L21.588,22.5 L19.331,25 L4.885,17.5 L0.37,3.5 L0.822,2.5 L2.627,1 C2.627,1 3.982,0 4.885,0 L12.108,0 C13.552,0 14.816,2.333 15.268,3.5 Z" id="phone-03" fill="#878787"></path>
            <path d="M12.559,5.5 L18.88,24.5 L4.885,17.5 C3.53,13.833 0.731,6.1 0.37,4.5 C0.009,2.9 1.123,2.167 1.725,2 L9.399,2 C10.844,2 12.108,4.333 12.559,5.5 Z" id="phone-02" fill="#605F5F"></path>
            <ellipse id="phone-01" fill="#383838" transform="translate(2.619000, 5.316000) rotate(-36.318203) translate(-2.619000, -5.316000) " cx="2.619" cy="5.316" rx="1" ry="1.44873962"></ellipse>
        </g>
        <path d="M384.523,234.902 C369.655,236.491 347.203,234.405 336.475,232.916 C335.115,224.475 334.209,224.475 331.942,219.51 C330.724,216.841 328.588,215.24 327.863,214.049 C327.137,212.857 323.783,210.573 322.877,211.07 L326.05,221 C326.05,221 324.69,221.993 323.33,221.993 C318.344,221.993 312.904,218.021 311.998,217.028 C311.091,216.035 309.732,215.042 307.465,211.566 C303.839,213.552 307.918,219.014 309.278,220.503 C308.372,221 308.372,223.482 310.185,224.475 C308.372,224.475 309.278,228.447 310.638,228.944 C309.278,228.944 309.732,231.923 311.545,232.916 L330.129,246.321 C337.934,247.487 349.805,249.025 360.952,250 L389.056,250 C396.308,246.822 405.374,229.606 409,221.496 L394.495,215.042 C389.962,223.482 387.696,229.44 384.523,234.902 Z" id="R-hand" fill="#FFDDCA" fill-rule="nonzero"></path>
    </g>
</svg>